<svg width="12" height="23" viewBox="0 0 12 23" fill="none" xmlns="http://www.w3.org/2000/svg">
<path d="M10.0089 22.9999C9.75277 23.0007 9.49968 22.9466 9.26825 22.8414C9.03681 22.7362 8.83292 22.5827 8.67154 22.3921L0.39005 12.5359C0.137864 12.2419 0 11.8733 0 11.4928C0 11.1123 0.137864 10.7436 0.39005 10.4496L8.96302 0.59343C9.25405 0.257963 9.67226 0.0469997 10.1256 0.0069511C10.579 -0.0330975 11.0304 0.101049 11.3806 0.379879C11.7307 0.658709 11.9509 1.05938 11.9927 1.49376C12.0345 1.92813 11.8945 2.36062 11.6035 2.69609L3.93926 11.501L11.3463 20.3059C11.556 20.547 11.6892 20.8406 11.7301 21.152C11.771 21.4633 11.718 21.7794 11.5773 22.0629C11.4366 22.3463 11.2142 22.5851 10.9362 22.7512C10.6583 22.9173 10.3365 23.0036 10.0089 22.9999Z" fill="white"/>
</svg>
