<svg width="40" height="40" viewBox="0 0 40 40" fill="none" xmlns="http://www.w3.org/2000/svg">
<path d="M0 20C0 8.95418 8.95418 0 20 0C31.0458 0 40 8.95418 40 20C40 31.0458 31.0458 40 20 40C8.95418 40 0 31.0458 0 20Z" fill="white"/>
<path d="M14.1611 14.1638C14.1611 14.9926 13.4898 15.6641 12.6615 15.6641C11.8332 15.6641 11.1611 14.9926 11.1611 14.1638C11.1611 13.3351 11.8332 12.6641 12.6615 12.6641C13.4898 12.6641 14.1611 13.3356 14.1611 14.1638Z" fill="#4DCCC1"/>
<path d="M28.8945 14.1638C28.8945 14.9926 28.2224 15.6641 27.3942 15.6641C26.5659 15.6641 25.8945 14.9926 25.8945 14.1638C25.8945 13.3351 26.5659 12.6641 27.3942 12.6641C28.2224 12.6641 28.8945 13.3356 28.8945 14.1638Z" fill="#4DCCC1"/>
<path d="M13 24.4712C13 26.6368 11.841 28 10 28C8.15896 28 7 26.6368 7 24.4712C7 22.1474 9.15062 19.0102 9.81021 18.1028C9.83368 18.0706 9.8628 18.0447 9.89558 18.0269C9.92836 18.0092 9.96402 18 10.0001 18C10.0362 18 10.0718 18.0092 10.1046 18.0269C10.1374 18.0447 10.1665 18.0706 10.19 18.1028C10.8494 19.0102 13 22.1474 13 24.4712Z" fill="white" stroke="#4DCCC1" stroke-width="1.5" stroke-miterlimit="10"/>
<path d="M15 23.0467C16.8333 21.2134 22 19.5467 26.5 23.0467" stroke="#4DCCC1" stroke-width="1.5" stroke-linecap="round"/>
</svg>
