<svg width="40" height="40" viewBox="0 0 40 40" fill="none" xmlns="http://www.w3.org/2000/svg">
<path d="M0 20C0 8.95418 8.95418 0 20 0C31.0458 0 40 8.95418 40 20C40 31.0458 31.0458 40 20 40C8.95418 40 0 31.0458 0 20Z" fill="white"/>
<path d="M14.1611 14.1638C14.1611 14.9926 13.4898 15.6641 12.6615 15.6641C11.8332 15.6641 11.1611 14.9926 11.1611 14.1638C11.1611 13.3351 11.8332 12.6641 12.6615 12.6641C13.4898 12.6641 14.1611 13.3356 14.1611 14.1638Z" fill="#C7F466"/>
<path d="M28.8945 14.1638C28.8945 14.9926 28.2224 15.6641 27.3942 15.6641C26.5659 15.6641 25.8945 14.9926 25.8945 14.1638C25.8945 13.3351 26.5659 12.6641 27.3942 12.6641C28.2224 12.6641 28.8945 13.3356 28.8945 14.1638Z" fill="#C7F466"/>
<rect x="10" y="25" width="21" height="1.5" rx="0.75" fill="#C7F466"/>
</svg>
