<svg width="40" height="40" viewBox="0 0 40 40" fill="none" xmlns="http://www.w3.org/2000/svg">
<path d="M0 20C0 8.95418 8.95418 0 20 0C31.0458 0 40 8.95418 40 20C40 31.0458 31.0458 40 20 40C8.95418 40 0 31.0458 0 20Z" fill="white"/>
<path d="M14.1088 15.1477C14.1088 16.5201 13.4491 17.6321 12.6353 17.6321C11.8215 17.6321 11.1611 16.5201 11.1611 15.1477C11.1611 13.7753 11.8215 12.6641 12.6353 12.6641C13.4491 12.6641 14.1088 13.7761 14.1088 15.1477Z" fill="#EF5DA8"/>
<path d="M28.8422 15.1477C28.8422 16.5201 28.1818 17.6321 27.368 17.6321C26.5542 17.6321 25.8945 16.5201 25.8945 15.1477C25.8945 13.7753 26.5542 12.6641 27.368 12.6641C28.1818 12.6641 28.8422 13.7761 28.8422 15.1477Z" fill="#EF5DA8"/>
<path d="M6.56055 21.8911C7.32273 28.6409 13.0471 33.8867 19.9998 33.8867C26.9525 33.8867 32.6769 28.6409 33.4391 21.8911H6.56055Z" fill="#EF5DA8"/>
<path d="M0 20C0 8.95418 8.95418 0 20 0C31.0458 0 40 8.95418 40 20C40 31.0458 31.0458 40 20 40C8.95418 40 0 31.0458 0 20Z" fill="white"/>
<path d="M14.1088 15.1477C14.1088 16.5201 13.4491 17.6321 12.6353 17.6321C11.8215 17.6321 11.1611 16.5201 11.1611 15.1477C11.1611 13.7753 11.8215 12.6641 12.6353 12.6641C13.4491 12.6641 14.1088 13.7761 14.1088 15.1477Z" fill="#EF5DA8"/>
<path d="M28.8422 15.1477C28.8422 16.5201 28.1818 17.6321 27.368 17.6321C26.5542 17.6321 25.8945 16.5201 25.8945 15.1477C25.8945 13.7753 26.5542 12.6641 27.368 12.6641C28.1818 12.6641 28.8422 13.7761 28.8422 15.1477Z" fill="#EF5DA8"/>
<path d="M6.56055 21.8911C7.32273 28.6409 13.0471 33.8867 19.9998 33.8867C26.9525 33.8867 32.6769 28.6409 33.4391 21.8911H6.56055Z" fill="#EF5DA8"/>
</svg>
