<svg width="40" height="40" viewBox="0 0 40 40" fill="none" xmlns="http://www.w3.org/2000/svg">
<path d="M0 20C0 8.95418 8.95418 0 20 0C31.0458 0 40 8.95418 40 20C40 31.0458 31.0458 40 20 40C8.95418 40 0 31.0458 0 20Z" fill="white"/>
<path d="M13.1621 16.1638C13.1621 16.9926 12.4908 17.6641 11.6625 17.6641C10.8342 17.6641 10.1621 16.9926 10.1621 16.1638C10.1621 15.3351 10.8342 14.6641 11.6625 14.6641C12.4908 14.6641 13.1621 15.3356 13.1621 16.1638Z" fill="#FF696B"/>
<path d="M29.8945 16.1638C29.8945 16.9926 29.2224 17.6641 28.3942 17.6641C27.5659 17.6641 26.8945 16.9926 26.8945 16.1638C26.8945 15.3351 27.5659 14.6641 28.3942 14.6641C29.2224 14.6641 29.8945 15.3356 29.8945 16.1638Z" fill="#FF696B"/>
<path d="M11 28C11 27.6592 20 16.9224 29 28" stroke="#FF696B" stroke-width="1.5" stroke-linecap="round"/>
<path d="M26.4387 12.9798L30.7592 10.4632" stroke="#FF696B" stroke-width="1.5" stroke-linecap="round"/>
<path d="M10.0003 10.1131L14.2702 12.7145" stroke="#FF696B" stroke-width="1.5" stroke-linecap="round"/>
</svg>
