<svg width="26" height="25" viewBox="0 0 26 25" fill="none" xmlns="http://www.w3.org/2000/svg">
<path d="M22.5984 10.6C22.5984 8.05392 21.587 5.61212 19.7867 3.81177C17.9863 2.01143 15.5445 1 12.9984 1C10.4524 1 8.01056 2.01143 6.21021 3.81177C4.40986 5.61212 3.39844 8.05392 3.39844 10.6" stroke="black" stroke-width="2" stroke-linecap="round" stroke-linejoin="round"/>
<path d="M22.6 18.9999V19.5999C22.6 20.2364 22.3471 20.8469 21.8971 21.297C21.447 21.747 20.8365 21.9999 20.2 21.9999H16M1 15.9255V13.6743C1.00008 13.1391 1.17904 12.6193 1.50845 12.1975C1.83785 11.7757 2.29879 11.4761 2.818 11.3463L4.906 10.8231C5.0121 10.7967 5.12282 10.7948 5.22977 10.8175C5.33672 10.8403 5.43708 10.8871 5.52325 10.9544C5.60941 11.0217 5.67912 11.1077 5.72707 11.206C5.77502 11.3043 5.79996 11.4122 5.8 11.5215V18.0771C5.80019 18.1867 5.77537 18.2948 5.72743 18.3934C5.67948 18.4919 5.60969 18.5782 5.52335 18.6457C5.43702 18.7131 5.33642 18.76 5.22923 18.7827C5.12204 18.8054 5.01108 18.8034 4.9048 18.7767L2.8168 18.2547C2.29781 18.1247 1.83714 17.825 1.50797 17.4032C1.17881 16.9814 1.00001 16.4617 1 15.9267V15.9255ZM25 15.9255V13.6743C24.9999 13.1391 24.821 12.6193 24.4916 12.1975C24.1622 11.7757 23.7012 11.4761 23.182 11.3463L21.094 10.8231C20.9879 10.7967 20.8772 10.7948 20.7702 10.8175C20.6633 10.8403 20.5629 10.8871 20.4768 10.9544C20.3906 11.0217 20.3209 11.1077 20.2729 11.206C20.225 11.3043 20.2 11.4122 20.2 11.5215V18.0771C20.1999 18.1865 20.2247 18.2946 20.2725 18.393C20.3204 18.4914 20.3901 18.5776 20.4763 18.6451C20.5625 18.7125 20.6629 18.7594 20.7699 18.7822C20.877 18.805 20.9878 18.8031 21.094 18.7767L23.182 18.2547C23.7012 18.1249 24.1622 17.8253 24.4916 17.4035C24.821 16.9817 24.9999 16.4619 25 15.9267V15.9255Z" stroke="black" stroke-width="2"/>
<path d="M14.7984 23.8002H11.1984C10.721 23.8002 10.2632 23.6106 9.92565 23.273C9.58808 22.9354 9.39844 22.4776 9.39844 22.0002C9.39844 21.5228 9.58808 21.065 9.92565 20.7274C10.2632 20.3898 10.721 20.2002 11.1984 20.2002H14.7984C15.2758 20.2002 15.7337 20.3898 16.0712 20.7274C16.4088 21.065 16.5984 21.5228 16.5984 22.0002C16.5984 22.4776 16.4088 22.9354 16.0712 23.273C15.7337 23.6106 15.2758 23.8002 14.7984 23.8002Z" stroke="black" stroke-width="2"/>
</svg>
