<svg width="26" height="26" viewBox="0 0 26 26" fill="none" xmlns="http://www.w3.org/2000/svg">
<path d="M1 13C1 19.6276 6.3724 25 13 25C19.6276 25 25 19.6276 25 13C25 6.3724 19.6276 1 13 1C6.3724 1 1 6.3724 1 13Z" stroke="black" stroke-width="2" stroke-linecap="round" stroke-linejoin="round"/>
<path d="M14.1999 1.06055C14.1999 1.06055 17.7999 5.80055 17.7999 13.0005C17.7999 20.2005 14.1999 24.9405 14.1999 24.9405M11.7999 24.9405C11.7999 24.9405 8.19986 20.2005 8.19986 13.0005C8.19986 5.80055 11.7999 1.06055 11.7999 1.06055M1.75586 17.2005H24.2439M1.75586 8.80055H24.2439" stroke="black" stroke-width="2" stroke-linecap="round" stroke-linejoin="round"/>
</svg>
