<svg width="26" height="24" viewBox="0 0 26 24" fill="none" xmlns="http://www.w3.org/2000/svg">
<path d="M10.3333 16.9997V19.6663C10.3333 20.3736 10.6143 21.0519 11.1144 21.552C11.6145 22.0521 12.2928 22.333 13 22.333H22.3333C23.0406 22.333 23.7189 22.0521 24.219 21.552C24.719 21.0519 25 20.3736 25 19.6663L25 3.66634C25 2.9591 24.719 2.28082 24.219 1.78072C23.7189 1.28063 23.0406 0.999674 22.3333 0.999674H13C12.2928 0.999674 11.6145 1.28063 11.1144 1.78072C10.6143 2.28082 10.3333 2.9591 10.3333 3.66634V6.33301" stroke="black" stroke-width="2" stroke-linecap="round" stroke-linejoin="round"/>
<path d="M19.668 11.666L1.0013 11.666L5.0013 15.666M5.0013 7.66602L1.0013 11.666" stroke="black" stroke-width="2" stroke-linecap="round" stroke-linejoin="round"/>
</svg>
