<svg width="95" height="47" viewBox="0 0 95 47" fill="none" xmlns="http://www.w3.org/2000/svg">
<path d="M40.1141 0.0546799C39.6254 0.239865 39.2036 0.594804 39.003 1.00118C38.8795 1.2481 38.1388 3.86127 37.8559 5.05468C37.717 5.63596 37.7427 6.07835 37.9279 6.48473C38.0719 6.80366 38.4114 7.1946 38.684 7.3695C39.5122 7.88905 40.7057 7.66785 41.2869 6.8911C41.4978 6.60304 41.6059 6.26353 42.218 4.00016C42.6192 2.51867 42.6655 2.2769 42.6707 1.8911C42.6707 1.5053 42.6501 1.41271 42.5061 1.10921C42.3055 0.682253 41.9608 0.332458 41.575 0.152417C41.3384 0.0443921 41.1892 0.0135279 40.7931 0.00323963C40.469 -0.00704813 40.2427 0.00838375 40.1141 0.0546799Z" fill="#4DCCC1"/>
<path d="M51.5376 3.09458C50.9923 3.30549 50.5808 3.64499 50.3699 4.0668C50.3081 4.18512 50.0612 5.02874 49.8143 5.92894C49.1816 8.29006 49.125 8.51639 49.125 8.75302C49.125 9.27257 49.4285 9.931 49.8092 10.2551C50.0509 10.4608 50.5448 10.6769 50.8483 10.7129C51.3575 10.7798 52.0417 10.5534 52.412 10.2088C52.803 9.83841 52.9625 9.44746 53.4357 7.67792C53.9707 5.67174 54.0787 5.17791 54.0478 4.80754C54.0067 4.35487 53.8318 3.97421 53.4974 3.61927C53.1271 3.22832 52.731 3.05343 52.16 3.038C51.8873 3.02771 51.6559 3.05343 51.5376 3.09458Z" fill="#4DCCC1"/>
<path d="M0 16.7569V23.6499H1.64609H3.29218V20.2651C3.29218 17.0604 3.25618 15.7641 3.13272 14.3701C3.08642 13.8094 3.09157 13.6602 3.16873 13.7322C3.18416 13.7476 3.82716 15.9801 4.59877 18.691L6.00309 23.6242H7.7675H9.5319L10.9311 18.7219C11.7027 16.0264 12.3508 13.8042 12.3714 13.7836C12.392 13.7631 12.3971 14.0357 12.3766 14.3906C12.2582 16.7775 12.2377 17.9606 12.2531 20.7435L12.2685 23.8814L12.4177 24.2929C12.9218 25.6921 13.6934 26.8443 14.6348 27.6057C15.1338 28.0069 15.5093 28.2127 16.5689 28.6705C19.1975 29.8073 20.8539 30.903 21.3375 31.8289C21.5792 32.2919 21.6873 33.1767 21.8107 35.867C21.9445 38.6756 22.1348 39.9771 22.608 41.2013C23.5391 43.619 25.7099 45.3989 28.7037 46.2014C30.3447 46.6437 32.4949 46.6746 34.1924 46.2785C37.9424 45.4143 40.6482 42.7806 41.6358 39.0306C41.785 38.4596 41.9445 37.5439 42.0319 36.7415C42.1297 35.8464 42.1039 33.3618 41.9805 31.726C41.7799 29.1026 41.7696 28.8762 41.7696 27.6622C41.7696 26.9935 41.7953 26.2528 41.821 26.0162C41.8776 25.5429 42.0679 24.6787 42.1297 24.6118C42.1502 24.5861 42.3971 24.5964 42.6749 24.6273C44.0278 24.7919 45.6893 24.6427 47.0937 24.2363C47.6286 24.0769 48.5957 23.7116 48.6317 23.655C48.6523 23.6242 47.6749 21.3608 47.6183 21.3042C47.6081 21.2939 47.4074 21.3659 47.1657 21.4637C46.605 21.6849 45.6482 21.9318 45.0823 22.0038C44.5165 22.0758 43.1945 22.0758 42.6698 22.0038C40.8797 21.7569 39.177 20.9801 37.8241 19.797C37.3611 19.3906 36.7747 18.7528 36.5535 18.4133C36.4918 18.3207 36.4146 18.2538 36.3683 18.2641C36.2449 18.295 34.357 19.6427 34.3262 19.725C34.2696 19.8639 35.2521 21.0059 35.998 21.6746C36.9033 22.4822 38.107 23.259 39.1101 23.6859C39.3622 23.7939 39.5576 23.9071 39.5576 23.9483C39.5576 23.9843 39.5113 24.2003 39.4548 24.4164C39.213 25.3732 39.1718 25.8413 39.1718 27.7137C39.177 29.19 39.2027 29.8022 39.321 31.3402C39.5062 33.6345 39.5319 35.8053 39.3827 36.8958C39.0895 39.118 38.3848 40.6406 37.0885 41.8752C36.3838 42.5491 35.6225 43.0326 34.7222 43.3773C32.5103 44.2363 29.8663 44.1129 27.7521 43.0583C26.0545 42.2096 25.108 40.9904 24.748 39.1849C24.5833 38.3516 24.5422 37.9195 24.4342 35.8413C24.3313 33.9483 24.2181 32.5439 24.1255 31.9832C24.0947 31.8289 24.0535 31.5254 24.0226 31.3094C23.9403 30.6561 23.6111 30.0491 22.9527 29.3546C22.0216 28.3618 20.2058 27.2199 18.0298 26.2425C17.5515 26.0316 17.0679 25.7847 16.9445 25.7024C16.6718 25.5018 16.3529 25.0799 16.0905 24.5501C15.6482 23.6808 15.6893 24.4421 15.6893 16.7209V9.86388H13.1945H10.7047L10.6482 10.0542C9.78396 13.1921 7.91667 19.6118 7.87038 19.6118C7.82922 19.6118 7.29424 17.8886 6.4249 14.9308C5.66358 12.3536 5.01544 10.1622 4.98972 10.0542L4.93313 9.86388H2.46914H0V16.7569Z" fill="#4DCCC1"/>
<path d="M60.1328 16.7623V23.6553L63.0289 23.6398C66.2079 23.6193 66.352 23.6038 67.3859 23.2798C69.068 22.7448 70.3643 21.6594 71.0587 20.1882C72.0207 18.1409 72.0413 14.9516 71.0999 13.0791C70.4312 11.7468 69.3201 10.8158 67.7923 10.3065C66.6812 9.93613 65.8736 9.86926 62.5917 9.86411H60.1328V16.7623ZM65.8684 13.0328C66.6503 13.2437 67.1647 13.645 67.4888 14.3086C68.1009 15.5431 68.0855 17.8528 67.4528 19.1697C67.2264 19.6429 66.9127 19.9619 66.4188 20.2191C65.853 20.5174 65.39 20.6151 64.5464 20.6151H63.8365V16.7468V12.8837L64.7007 12.9145C65.2357 12.9351 65.6781 12.9814 65.8684 13.0328Z" fill="#4DCCC1"/>
<path d="M22.4792 12.853C20.6171 13.0331 19.3619 13.8304 18.6263 15.3016C18.1942 16.1709 18.0039 17.1174 18.0039 18.4086C18.0039 20.2861 18.4257 21.459 19.4494 22.4466C20.0512 23.0228 20.4936 23.2851 21.2909 23.5475C22.078 23.8047 22.7056 23.8715 23.9916 23.8407C24.9484 23.8201 25.2261 23.7944 25.7508 23.6812C26.3475 23.5578 27.1294 23.3108 27.4329 23.1565L27.5718 23.0794V21.7676C27.5718 20.5331 27.5667 20.4508 27.4844 20.4765C27.4329 20.4919 27.1912 20.5896 26.9442 20.6925C26.0852 21.0475 25.1335 21.2326 24.1819 21.2326C23.5132 21.2326 23.2097 21.1761 22.7827 20.9909C22.5049 20.8674 22.15 20.5639 21.9905 20.3067C21.8516 20.0804 21.7076 19.6637 21.7076 19.4734V19.3294H24.9998H28.292V18.5938C28.2868 16.9322 28.1428 16.0423 27.7519 15.2296C27.0574 13.7995 25.8177 13.0279 23.9144 12.853C23.2663 12.7913 23.1171 12.7913 22.4792 12.853ZM24.0584 15.5022C24.506 15.7182 24.8198 16.1812 24.8969 16.7419L24.9329 17.0145H23.3691H21.8105V16.8654C21.8105 16.3767 22.2117 15.6874 22.6078 15.5022C23.0553 15.2913 23.616 15.2913 24.0584 15.5022Z" fill="#4DCCC1"/>
<path d="M78.2047 12.8526C76.322 13.0223 74.964 13.8865 74.2181 15.3937C73.8374 16.155 73.678 16.8546 73.6317 17.94C73.5442 19.8433 73.9969 21.2528 75.0412 22.3742C75.6327 23.0069 76.3992 23.4493 77.3148 23.6859C77.9887 23.8659 79.2747 23.9071 80.036 23.7836C82.4126 23.3824 83.9249 21.726 84.2027 19.2106C84.4702 16.8186 83.678 14.7661 82.0782 13.7013C81.3477 13.2178 80.535 12.9451 79.5525 12.8474C78.93 12.7908 78.894 12.7908 78.2047 12.8526ZM79.4702 15.6561C79.7891 15.7898 79.9794 15.975 80.1595 16.3402C80.4064 16.8289 80.4784 17.2867 80.4784 18.3258C80.4784 19.3186 80.4064 19.797 80.2006 20.2394C79.892 20.8824 79.6039 21.0727 78.9352 21.0779C78.4156 21.0779 78.0556 20.9287 77.8601 20.6303C77.1399 19.5449 77.1245 17.1427 77.8292 16.083C78.1481 15.5943 78.8683 15.4091 79.4702 15.6561Z" fill="#4DCCC1"/>
<path d="M90.739 12.8476C89.1803 12.9916 88.1001 13.4648 87.2308 14.3805C86.6495 15.0029 86.274 15.7488 86.0476 16.7622C85.9447 17.2354 85.9293 17.4258 85.9345 18.4031C85.9345 19.329 85.9499 19.5862 86.0425 19.9978C86.4283 21.757 87.3645 22.9247 88.8357 23.4906C89.5559 23.7683 89.9777 23.8301 91.2019 23.8301C92.1587 23.8249 92.3696 23.8095 92.7503 23.7169C93.347 23.5677 93.8306 23.3774 94.2781 23.1253L94.6485 22.9093V21.4484C94.6485 20.6459 94.633 19.9978 94.6124 20.0081C94.5867 20.0183 94.2832 20.1675 93.9283 20.3424C93.1258 20.7385 92.6114 20.8774 91.7884 20.9134C90.991 20.9443 90.6978 20.862 90.3017 20.507C89.8388 20.0801 89.6073 19.3856 89.6073 18.4134C89.6073 17.2148 89.9931 16.2941 90.6567 15.9083C90.9653 15.7282 91.4231 15.6613 91.9067 15.7231C92.2719 15.7694 93.1875 16.0472 93.6917 16.2683C93.7997 16.3146 93.9026 16.3352 93.9231 16.3198C93.9386 16.2992 94.1906 15.6922 94.4787 14.9669L94.9982 13.6449L94.6587 13.4803C93.9592 13.1459 93.1155 12.9299 92.1639 12.8476C91.5312 12.791 91.382 12.791 90.739 12.8476Z" fill="#4DCCC1"/>
<path d="M37.9943 2.28309C36.1265 2.49894 34.4349 3.7985 33.7477 5.53858C33.6463 5.79408 32.9635 8.28746 32.5494 9.89979C32.0913 11.6883 32.0208 13.2742 32.3159 14.9658C32.5979 16.5782 33.1529 17.9923 34.0384 19.3579L34.3027 19.7676L34.6639 19.5121C36.1485 18.4724 36.404 18.2874 36.4084 18.2654C36.4084 18.2478 36.2851 18.0407 36.1353 17.8028C34.9371 15.8954 34.4877 13.4989 34.9106 11.2963C35.0648 10.4945 36.1353 6.59584 36.2807 6.29628C36.5406 5.76324 37.2234 5.16853 37.7564 5.00994L37.9327 4.95708L38.2807 3.67074C38.4701 2.9659 38.6331 2.35357 38.6463 2.30952C38.6683 2.22141 38.5626 2.21701 37.9943 2.28309Z" fill="#4DCCC1" fill-opacity="0.25"/>
<path d="M53.7463 6.56021C53.5613 7.20778 53.1032 8.94345 53.1032 8.9831C53.1032 9.00953 53.178 9.13288 53.275 9.25623C53.7155 9.83772 53.9137 10.5558 53.8124 11.2166C53.7507 11.5954 52.7639 15.287 52.5481 15.9346C51.8168 18.1152 50.134 20.0579 48.0723 21.0932C47.8345 21.2121 47.6406 21.3178 47.6406 21.3311C47.6406 21.3575 48.6582 23.6614 48.6847 23.6879C48.6935 23.6967 48.8917 23.6086 49.1296 23.494C51.9005 22.124 54.0371 19.6835 55.0371 16.7408C55.2882 16.0007 56.319 12.0976 56.3895 11.5954C56.6802 9.64389 55.8212 7.69236 54.1736 6.5514C54.0018 6.42805 53.8476 6.33113 53.8344 6.33113C53.8212 6.33113 53.7816 6.43686 53.7463 6.56021Z" fill="#4DCCC1" fill-opacity="0.25"/>
</svg>
