<svg width="6" height="23" viewBox="0 0 6 23" fill="none" xmlns="http://www.w3.org/2000/svg">
<path d="M2.75095 8.74905C2.38969 8.74905 2.03197 8.8202 1.69821 8.95845C1.36445 9.0967 1.06118 9.29933 0.805735 9.55478C0.550286 9.81023 0.347652 10.1135 0.209404 10.4473C0.0711556 10.781 2.84471e-07 11.1387 2.84471e-07 11.5C2.84471e-07 11.8613 0.0711556 12.219 0.209404 12.5527C0.347652 12.8865 0.550286 13.1898 0.805735 13.4452C1.06118 13.7007 1.36445 13.9033 1.69821 14.0415C2.03197 14.1798 2.38969 14.2509 2.75095 14.2509C3.48055 14.2508 4.1802 13.9608 4.69598 13.4448C5.21177 12.9288 5.50144 12.229 5.50128 11.4994C5.50111 10.7698 5.21112 10.0701 4.6951 9.55434C4.17908 9.03856 3.4793 8.74888 2.7497 8.74905H2.75095ZM2.75095 5.4994C3.11205 5.49924 3.46957 5.42795 3.80312 5.28962C4.13667 5.15128 4.4397 4.9486 4.69492 4.69315C4.95013 4.4377 5.15254 4.13448 5.29057 3.80081C5.42861 3.46714 5.49957 3.10955 5.4994 2.74845C5.49924 2.38736 5.42795 2.02983 5.28961 1.69628C5.15128 1.36274 4.9486 1.0597 4.69315 0.804485C4.4377 0.549268 4.13448 0.346864 3.80081 0.20883C3.46714 0.0707967 3.10955 -0.00016385 2.74845 2.84086e-07C2.01918 0.00033178 1.31992 0.290349 0.804485 0.806253C0.28905 1.32216 -0.0003312 2.02169 2.84471e-07 2.75095C0.000331769 3.48022 0.290349 4.17948 0.806253 4.69492C1.32216 5.21035 2.02169 5.49973 2.75095 5.4994ZM2.75095 17.4981C2.02135 17.4981 1.32164 17.7879 0.805735 18.3038C0.289832 18.8197 2.84471e-07 19.5195 2.84471e-07 20.249C2.84471e-07 20.9786 0.289832 21.6784 0.805735 22.1943C1.32164 22.7102 2.02135 23 2.75095 23C3.48055 23 4.18026 22.7102 4.69617 22.1943C5.21207 21.6784 5.5019 20.9786 5.5019 20.249C5.5019 19.5195 5.21207 18.8197 4.69617 18.3038C4.18026 17.7879 3.48055 17.4981 2.75095 17.4981Z" fill="#4DCCC1"/>
</svg>
