<svg width="31" height="28" viewBox="0 0 31 28" fill="none" xmlns="http://www.w3.org/2000/svg">
<path d="M1.70349 28.0002C2.1646 28.0002 2.5641 27.8279 2.90106 27.4813C4.09397 26.2586 13.6335 16.4736 14.8255 15.25C15.1624 14.9043 15.3314 14.4955 15.3314 14.0216C15.3314 13.5486 15.1624 13.1388 14.8255 12.7932C13.6335 11.5705 4.09397 1.78551 2.90106 0.561901C2.5641 0.216265 2.1646 0.0429688 1.70349 0.0429688C1.24238 0.0429688 0.842876 0.216265 0.505912 0.561901C0.168948 0.907537 0 1.31732 0 1.7903C0 4.23655 0 23.8066 0 26.2529C0 26.7268 0.168948 27.1356 0.505912 27.4813C0.842876 27.8279 1.24238 28.0002 1.70349 28.0002Z" fill="#4DCCC1"/>
<path d="M16.4847 28.0002C16.9458 28.0002 17.3453 27.8279 17.6823 27.4813C18.8752 26.2586 28.4148 16.4736 29.6067 15.25C29.9437 14.9043 30.1126 14.4955 30.1126 14.0216C30.1126 13.5486 29.9437 13.1388 29.6067 12.7932C28.4148 11.5705 18.8752 1.78551 17.6823 0.561901C17.3453 0.216265 16.9458 0.0429688 16.4847 0.0429688C16.0236 0.0429688 15.6241 0.216265 15.2872 0.561901C14.9502 0.907537 14.7812 1.31732 14.7812 1.7903C14.7812 4.23655 14.7812 23.8066 14.7812 26.2529C14.7812 26.7268 14.9502 27.1356 15.2872 27.4813C15.6241 27.8279 16.0236 28.0002 16.4847 28.0002Z" fill="#4DCCC1"/>
</svg>
