<svg width="19" height="19" viewBox="0 0 19 19" fill="none" xmlns="http://www.w3.org/2000/svg">
<path d="M5.92758 17.6782L14.9278 8.17795L10.6529 3.66553L1.65265 13.1657C1.52875 13.2967 1.44073 13.4606 1.39794 13.6401L0.400391 19L5.47723 17.947C5.64769 17.9021 5.80361 17.809 5.92758 17.6782ZM17.8333 5.11105C18.1964 4.72764 18.4004 4.20768 18.4004 3.66553C18.4004 3.12337 18.1964 2.60341 17.8333 2.22L16.2972 0.59863C15.934 0.215328 15.4414 0 14.9278 0C14.4142 0 13.9216 0.215328 13.5583 0.59863L12.0223 2.22L16.2972 6.73242L17.8333 5.11105Z" fill="white"/>
</svg>
