<svg width="26" height="26" viewBox="0 0 26 26" fill="none" xmlns="http://www.w3.org/2000/svg">
<path d="M9.5704 24.0688C7.58563 23.4762 5.78811 22.3798 4.3528 20.8864C4.81461 20.3387 5.10248 19.6656 5.17959 18.9533C5.25671 18.2411 5.11955 17.522 4.78567 16.8881C4.45179 16.2543 3.93637 15.7344 3.30537 15.3951C2.67438 15.0559 1.9565 14.9126 1.2436 14.9836C1.08119 14.1881 0.999577 13.3781 1 12.5662C1 11.3122 1.192 10.1026 1.5496 8.9662H1.6C2.21186 8.96639 2.81366 8.81064 3.3486 8.51365C3.88354 8.21665 4.33396 7.78822 4.65732 7.26879C4.98068 6.74937 5.16632 6.1561 5.19671 5.545C5.2271 4.9339 5.10124 4.32514 4.831 3.7762C6.23776 2.46629 7.93903 1.5141 9.7912 1C10.0926 1.59184 10.5519 2.08876 11.1182 2.43577C11.6845 2.78278 12.3358 2.96636 13 2.9662C13.6642 2.96636 14.3155 2.78278 14.8818 2.43577C15.4481 2.08876 15.9074 1.59184 16.2088 1C18.061 1.5141 19.7622 2.46629 21.169 3.7762C20.8968 4.32899 20.771 4.94239 20.8037 5.55769C20.8364 6.173 21.0265 6.76961 21.3558 7.29041C21.6851 7.81122 22.1426 8.2388 22.6844 8.53221C23.2262 8.82562 23.8343 8.97505 24.4504 8.9662C24.8158 10.1312 25.0011 11.3452 25 12.5662C25 13.3942 24.916 14.203 24.7564 14.9842C24.0435 14.9132 23.3256 15.0565 22.6946 15.3957C22.0636 15.735 21.5482 16.2549 21.2143 16.8887C20.8805 17.5226 20.7433 18.2417 20.8204 18.9539C20.8975 19.6662 21.1854 20.3393 21.6472 20.887C20.2118 22.3802 18.4143 23.4764 16.4296 24.0688C16.1965 23.3424 15.7388 22.7087 15.1225 22.2592C14.5061 21.8096 13.7629 21.5674 13 21.5674C12.2371 21.5674 11.4939 21.8096 10.8775 22.2592C10.2612 22.7087 9.80347 23.3424 9.5704 24.0688Z" stroke="black" stroke-width="2" stroke-linejoin="round"/>
<path d="M12.9988 16.7662C13.5504 16.7662 14.0965 16.6576 14.6061 16.4465C15.1157 16.2354 15.5787 15.9261 15.9687 15.5361C16.3587 15.1461 16.6681 14.683 16.8791 14.1735C17.0902 13.6639 17.1988 13.1178 17.1988 12.5662C17.1988 12.0147 17.0902 11.4685 16.8791 10.9589C16.6681 10.4494 16.3587 9.98637 15.9687 9.59636C15.5787 9.20636 15.1157 8.89699 14.6061 8.68592C14.0965 8.47485 13.5504 8.36621 12.9988 8.36621C11.8849 8.36621 10.8166 8.80871 10.029 9.59636C9.24133 10.384 8.79883 11.4523 8.79883 12.5662C8.79883 13.6801 9.24133 14.7484 10.029 15.5361C10.8166 16.3237 11.8849 16.7662 12.9988 16.7662V16.7662Z" stroke="black" stroke-width="2" stroke-linejoin="round"/>
</svg>
